<?xml version="1.0" standalone="no"?>
<!DOCTYPE svg PUBLIC "-//W3C//DTD SVG 20010904//EN"
 "http://www.w3.org/TR/2001/REC-SVG-20010904/DTD/svg10.dtd">
<svg version="1.0" xmlns="http://www.w3.org/2000/svg"
 width="701.000000pt" height="219.000000pt" viewBox="0 0 701.000000 219.000000"
 preserveAspectRatio="xMidYMid meet">
<metadata>
Created by potrace 1.16, written by Peter Selinger 2001-2019
</metadata>
<g transform="translate(0.000000,219.000000) scale(0.100000,-0.100000)"
fill="#000000" stroke="none">
<path d="M1640 2050 l0 -139 -42 -11 c-24 -6 -49 -13 -57 -16 -9 -3 -44 24
-85 64 l-71 70 -32 -14 -33 -14 0 -213 0 -213 34 -16 33 -16 69 69 c41 42 74
67 84 65 8 -3 34 -10 58 -16 l42 -11 0 -144 0 -145 74 0 75 0 67 140 67 140
97 0 c84 0 102 3 131 23 94 63 88 199 -12 249 -25 13 -58 18 -127 18 l-93 0
-65 135 -64 135 -75 0 -75 0 0 -140z m476 -234 c20 -28 17 -63 -6 -86 -19 -19
-33 -20 -212 -20 -177 0 -202 3 -301 28 -60 15 -108 32 -108 37 0 5 46 22 103
37 97 25 115 27 306 25 189 -2 205 -3 218 -21z"/>
<path d="M1118 1810 c-106 -13 -107 -14 -95 -61 8 -35 13 -40 31 -34 12 3 56
9 99 12 l77 6 0 43 c0 50 7 47 -112 34z"/>
<path d="M875 1757 c-16 -5 -63 -23 -102 -39 l-73 -30 20 -38 20 -38 87 35
c49 19 91 38 94 42 4 3 1 22 -5 42 -10 35 -12 36 -41 26z"/>
<path d="M515 1570 c-44 -33 -78 -63 -76 -67 2 -5 13 -20 26 -35 l22 -26 82
61 81 60 -18 30 c-9 17 -22 32 -27 34 -6 1 -46 -24 -90 -57z"/>
<path d="M2090 1462 c-73 -36 -103 -130 -59 -186 26 -33 56 -48 139 -71 74
-20 90 -30 90 -56 0 -57 -141 -50 -194 10 -11 11 -22 21 -26 21 -3 0 -17 -18
-29 -41 -22 -39 -22 -41 -5 -55 11 -8 39 -25 64 -37 63 -30 186 -31 227 -1 40
29 67 87 59 128 -13 68 -47 92 -188 131 -49 13 -58 19 -58 38 0 34 19 47 67
47 46 0 98 -21 105 -42 6 -17 26 -2 44 33 18 36 10 50 -47 80 -49 25 -141 25
-189 1z m166 -21 c47 -21 56 -31 45 -50 -6 -10 -16 -8 -42 8 -50 30 -122 29
-154 -4 -47 -46 -19 -105 58 -120 72 -14 128 -38 147 -62 29 -37 26 -86 -9
-125 -25 -29 -35 -32 -95 -36 -70 -5 -142 14 -167 44 -24 29 5 34 55 9 54 -27
82 -30 139 -14 26 7 41 18 48 36 21 55 -8 82 -114 109 -90 22 -127 53 -127
104 0 94 114 147 216 101z"/>
<path d="M2530 1250 l0 -230 160 0 160 0 0 45 0 45 -115 0 -115 0 0 50 0 50
100 0 100 0 0 45 0 45 -100 0 -100 0 0 45 0 45 115 0 115 0 0 45 0 45 -160 0
-160 0 0 -230z m290 185 c0 -12 -22 -15 -112 -17 l-113 -3 0 -70 0 -70 98 -3
c77 -2 97 -6 97 -17 0 -12 -19 -15 -100 -15 l-101 0 3 -77 3 -78 118 -3 c95
-2 117 -5 117 -17 0 -13 -24 -15 -140 -15 l-140 0 0 200 0 200 135 0 c112 0
135 -3 135 -15z"/>
<path d="M3030 1250 l0 -230 160 0 160 0 0 45 0 45 -115 0 -115 0 0 50 0 50
100 0 100 0 0 45 0 45 -100 0 -100 0 0 45 0 45 115 0 115 0 0 45 0 45 -160 0
-160 0 0 -230z m290 185 c0 -12 -22 -15 -112 -17 l-113 -3 0 -70 0 -70 98 -3
c77 -2 97 -6 97 -17 0 -12 -19 -15 -100 -15 l-101 0 3 -77 3 -78 118 -3 c95
-2 117 -5 117 -17 0 -13 -24 -15 -140 -15 l-140 0 0 200 0 200 135 0 c112 0
135 -3 135 -15z"/>
<path d="M3530 1250 l0 -230 45 0 45 0 0 75 0 75 40 0 c38 0 41 -2 87 -75 l48
-75 53 0 c28 0 52 2 52 4 0 3 -23 40 -51 84 l-50 80 26 28 c50 54 59 118 25
185 -34 67 -66 79 -202 79 l-118 0 0 -230z m256 184 c33 -22 54 -65 54 -111 0
-44 -30 -98 -59 -108 -26 -8 -26 -13 2 -55 13 -19 33 -52 46 -72 l23 -38 -22
0 c-15 0 -33 20 -68 75 l-47 75 -62 0 -63 0 0 -75 c0 -68 -2 -75 -20 -75 -19
0 -20 7 -20 200 l0 200 105 0 c81 0 112 -4 131 -16z"/>
<path d="M3594 1407 c-3 -8 -4 -49 -2 -93 l3 -79 40 -3 c110 -9 165 22 165 92
-1 71 -36 96 -135 96 -46 0 -67 -4 -71 -13z m171 -47 c32 -61 -2 -100 -86
-100 l-59 0 0 65 0 65 65 0 c62 0 65 -1 80 -30z"/>
<path d="M4149 1460 c-110 -58 -152 -200 -93 -318 89 -179 325 -154 390 41 19
58 14 118 -15 175 -22 43 -80 98 -118 113 -41 15 -125 10 -164 -11z m171 -25
c97 -51 138 -177 88 -275 -74 -143 -258 -148 -329 -8 -29 56 -34 109 -15 165
38 114 158 169 256 118z"/>
<path d="M4171 1398 c-51 -34 -76 -82 -76 -148 0 -97 61 -163 151 -163 103 0
175 131 130 236 -37 86 -136 123 -205 75z m133 -29 c83 -65 72 -202 -19 -246
-96 -46 -193 66 -155 181 25 77 115 111 174 65z"/>
<path d="M4729 1460 c-111 -60 -152 -200 -93 -318 104 -210 398 -130 398 108
1 81 -34 150 -97 195 -55 39 -152 46 -208 15z m171 -25 c123 -65 146 -241 44
-337 -88 -82 -229 -57 -284 52 -42 85 -32 173 29 241 58 65 138 82 211 44z"/>
<path d="M4748 1395 c-51 -35 -72 -78 -72 -146 1 -98 60 -162 150 -162 104 0
176 130 130 236 -38 89 -136 123 -208 72z m124 -16 c50 -23 81 -106 64 -173
-10 -40 -54 -85 -90 -91 -99 -19 -175 95 -132 199 27 65 97 94 158 65z"/>
<path d="M299 1362 c-25 -31 -54 -69 -63 -83 -17 -27 -17 -27 20 -49 34 -21
37 -22 46 -6 5 9 32 47 60 84 l50 66 -26 23 c-15 13 -30 23 -34 23 -4 0 -28
-26 -53 -58z"/>
<path d="M1170 1414 c-14 -2 -56 -9 -95 -15 -280 -45 -556 -269 -663 -539 -51
-129 -65 -215 -59 -364 3 -72 10 -148 17 -169 10 -35 13 -37 50 -37 22 0 40 1
40 3 0 1 -7 37 -15 80 -62 323 72 640 349 824 176 118 389 158 602 114 346
-72 597 -353 635 -712 9 -86 8 -120 -5 -197 -9 -50 -16 -97 -16 -103 0 -6 17
-9 43 -7 l42 3 13 60 c21 99 10 311 -22 418 -82 274 -274 482 -541 584 -110
43 -294 71 -375 57z"/>
<path d="M1423 1243 l-32 -24 47 -73 c52 -80 98 -173 90 -181 -3 -3 -60 -9
-127 -12 l-121 -6 0 156 0 157 -45 0 -45 0 0 -155 0 -155 -77 0 c-43 0 -101 3
-129 6 l-52 7 21 46 c11 25 42 81 69 124 26 43 48 81 48 84 0 9 -45 42 -57 43
-15 0 -104 -143 -139 -226 l-27 -64 -46 0 c-25 0 -77 5 -115 10 -38 6 -70 9
-72 8 -1 -2 -4 -21 -6 -43 -3 -39 -2 -40 37 -46 22 -4 70 -10 106 -13 l66 -7
-19 -77 c-10 -42 -21 -112 -25 -154 l-6 -78 -133 0 -134 0 0 -45 0 -45 134 0
133 0 5 -84 c3 -46 9 -89 12 -95 4 -6 25 -11 48 -11 40 0 40 1 35 30 -4 16 -9
59 -13 95 l-7 65 172 0 171 0 0 -96 0 -95 43 3 42 3 3 92 3 93 171 0 170 0 -6
-43 c-3 -23 -8 -66 -12 -94 l-7 -53 41 0 c48 0 49 3 58 110 l7 79 131 3 131 3
3 43 3 42 -135 0 -136 0 0 38 c0 32 -11 110 -36 243 l-6 36 84 7 c105 9 111
13 102 61 -6 36 -7 37 -43 31 -20 -3 -68 -8 -106 -12 l-71 -6 -28 65 c-26 63
-119 221 -134 230 -4 3 -21 -6 -39 -20z m-347 -373 l114 0 0 -150 0 -150 -170
0 -170 0 0 33 c0 45 18 152 37 220 16 57 17 59 46 53 16 -3 81 -6 143 -6z
m509 -62 c14 -63 34 -190 35 -225 0 -10 -41 -13 -170 -13 l-170 0 0 150 0 149
128 4 c70 1 135 4 144 5 13 2 20 -14 33 -70z"/>
<path d="M2800 640 l0 -230 45 0 45 0 0 95 0 95 95 0 95 0 0 -95 0 -95 45 0
45 0 0 230 0 230 -45 0 -45 0 0 -90 0 -91 -92 3 -93 3 -3 88 -3 87 -44 0 -45
0 0 -230z m70 110 l0 -91 118 3 117 3 3 88 c2 68 6 87 17 87 13 0 15 -31 15
-200 0 -171 -2 -200 -15 -200 -12 0 -15 17 -15 95 l0 95 -120 0 -120 0 0 -95
c0 -88 -1 -95 -20 -95 -19 0 -20 7 -20 200 0 193 1 200 20 200 19 0 20 -7 20
-90z"/>
<path d="M3469 850 c-110 -58 -152 -200 -93 -318 73 -146 254 -163 351 -34 58
77 66 167 24 250 -22 43 -80 98 -118 113 -41 15 -125 10 -164 -11z m171 -25
c123 -65 146 -241 44 -337 -88 -82 -229 -57 -284 52 -28 56 -33 105 -16 163
34 116 156 174 256 122z"/>
<path d="M3488 785 c-50 -34 -72 -78 -72 -145 -1 -170 199 -228 274 -80 54
106 -8 237 -117 247 -40 4 -55 0 -85 -22z m124 -16 c62 -29 89 -142 49 -207
-83 -132 -262 -21 -211 132 23 70 98 105 162 75z"/>
<path d="M3950 640 l0 -230 165 0 165 0 0 45 0 45 -115 0 -115 0 0 185 0 185
-50 0 -50 0 0 -230z m70 15 l0 -185 115 0 c96 0 115 -3 115 -15 0 -13 -22 -15
-135 -15 l-135 0 0 200 c0 193 1 200 20 200 19 0 20 -7 20 -185z"/>
<path d="M4440 640 l0 -230 45 0 45 0 0 230 0 230 -45 0 -45 0 0 -230z"/>
<path d="M4730 640 l0 -230 85 0 c132 0 182 14 236 69 38 38 49 56 58 103 24
114 -20 219 -109 265 -39 19 -61 22 -157 23 l-113 0 0 -230z m283 167 c48 -36
68 -77 74 -148 5 -49 2 -67 -21 -113 -40 -82 -75 -100 -203 -104 l-103 -4 0
202 0 202 108 -4 c101 -3 111 -5 145 -31z"/>
<path d="M4800 640 l0 -173 78 7 c80 6 109 20 144 67 28 37 34 120 14 174 -26
66 -62 87 -157 93 l-79 5 0 -173z m156 125 c72 -30 88 -166 26 -228 -26 -26
-40 -31 -92 -35 l-60 -4 0 141 0 141 45 0 c25 0 61 -7 81 -15z"/>
<path d="M5371 773 c-22 -54 -65 -156 -95 -228 l-54 -130 40 -3 c22 -2 46 -1
52 1 7 3 23 32 36 66 l25 61 71 0 72 0 27 -65 28 -65 50 0 c43 0 48 2 43 18
-4 9 -46 113 -94 229 l-87 213 -36 0 -37 0 -41 -97z m174 -120 c42 -104 80
-194 82 -201 4 -10 -1 -13 -17 -10 -17 2 -28 18 -47 66 l-25 63 -91 -3 -91 -3
-25 -62 c-21 -50 -31 -63 -47 -63 -20 0 -17 12 52 178 41 97 78 187 84 200 5
12 18 22 28 22 15 0 35 -39 97 -187z"/>
<path d="M5412 713 c-17 -43 -34 -86 -38 -95 -5 -16 2 -18 75 -18 l80 0 -36
88 c-20 48 -39 90 -42 95 -4 4 -21 -28 -39 -70z"/>
<path d="M5731 833 c13 -21 51 -84 86 -140 l62 -102 3 -88 3 -88 48 -3 47 -3
0 88 0 88 85 138 c47 76 85 140 85 142 0 3 -24 5 -52 5 l-53 0 -53 -90 c-29
-50 -56 -90 -60 -90 -4 0 -32 41 -62 90 l-54 90 -54 0 -54 0 23 -37z m107 -52
c20 -33 50 -81 65 -107 l28 -47 65 107 c47 76 71 106 85 106 24 0 24 1 -68
-148 -63 -102 -63 -103 -63 -177 0 -68 -2 -75 -20 -75 -18 0 -20 7 -20 77 0
76 0 77 -62 177 -34 56 -68 111 -76 124 -13 20 -13 22 7 22 15 0 32 -17 59
-59z"/>
<path d="M6340 853 c-44 -23 -73 -72 -72 -125 1 -63 26 -89 113 -117 120 -39
127 -42 133 -57 10 -25 -30 -54 -73 -54 -50 0 -89 15 -122 46 l-26 25 -26 -41
-27 -40 40 -29 c71 -51 188 -64 263 -30 58 26 85 116 53 178 -17 32 -53 51
-156 83 -53 16 -76 28 -78 41 -6 32 17 47 73 47 43 0 60 -5 85 -27 34 -28 34
-29 66 29 14 27 13 28 -27 55 -55 36 -164 44 -219 16z m150 -13 c46 -14 74
-36 67 -54 -5 -12 -11 -12 -44 5 -40 20 -113 25 -142 9 -10 -5 -24 -23 -31
-40 -18 -43 4 -73 67 -89 140 -36 173 -59 173 -122 0 -78 -40 -109 -140 -109
-84 0 -180 44 -154 70 8 8 21 5 50 -12 80 -47 204 -22 204 42 0 40 -35 64
-121 85 -92 23 -124 49 -124 104 0 88 93 140 195 111z"/>
<path d="M2850 311 c0 -5 7 -12 16 -15 20 -8 3698 -8 3718 0 9 3 16 10 16 15
0 5 -781 9 -1875 9 -1094 0 -1875 -4 -1875 -9z"/>
</g>
</svg>
